<?xml version="1.0" encoding="iso-8859-1"?>
<!-- Generator: Adobe Illustrator 16.0.0, SVG Export Plug-In . SVG Version: 6.00 Build 0)  -->
<!DOCTYPE svg PUBLIC "-//W3C//DTD SVG 1.1//EN" "http://www.w3.org/Graphics/SVG/1.1/DTD/svg11.dtd">
<svg version="1.1" id="Capa_1"  x="0px" y="0px"
	 width="38.855px" height="38.856px" viewBox="0 0 38.855 38.856" style="enable-background:new 0 0 38.855 38.856;"
	 fill='#4e4e4e'>
    <g>
        <path d="M38.854,34.629l-0.825-15.42c-0.045-0.837-0.733-1.49-1.572-1.49h-1.758c-0.26-2.58-2.058-4.585-4.229-4.585
            s-3.974,2.005-4.232,4.585h-1.744l-0.441-8.266c-0.044-0.835-0.733-1.489-1.569-1.489h-3.634c-0.896-3.14-3.312-5.396-6.145-5.396
            c-2.834,0-5.248,2.256-6.146,5.396H2.922c-0.837,0-1.525,0.654-1.571,1.489L0.002,34.629c-0.021,0.432,0.132,0.854,0.43,1.168
            c0.297,0.312,0.71,0.489,1.143,0.489h22.078h0.176h13.457c0.433,0,0.847-0.178,1.144-0.489
            C38.724,35.484,38.877,35.061,38.854,34.629z M12.699,5.717c1.154,0,2.195,0.905,2.807,2.248H9.893
            C10.502,6.621,11.544,5.717,12.699,5.717z M22.158,33.141H3.232l1.18-22.029h1.781c0.041,0.959,0.219,1.896,0.521,2.769
            C6.66,14.073,6.63,14.276,6.63,14.485c0,1.241,1.006,2.248,2.248,2.248c1.241,0,2.247-1.007,2.247-2.248
            c0-1.014-0.67-1.869-1.592-2.15c-0.1-0.393-0.164-0.802-0.189-1.222h6.712c-0.026,0.42-0.092,0.829-0.19,1.222
            c-0.922,0.281-1.592,1.137-1.592,2.15c0,1.241,1.006,2.248,2.247,2.248c1.241,0,2.248-1.007,2.248-2.248
            c0-0.209-0.03-0.411-0.085-0.604c0.305-0.873,0.479-1.81,0.521-2.769h1.779l1.177,21.979L22.158,33.141z M30.467,15.608
            c0.812,0,1.537,0.932,1.736,2.112h-3.475C28.93,16.538,29.655,15.608,30.467,15.608z M28.127,23.699
            c-0.764,0-1.378-0.614-1.378-1.377s0.614-1.377,1.378-1.377c0.76,0,1.376,0.614,1.376,1.377S28.887,23.699,28.127,23.699z
            M32.808,23.699c-0.76,0-1.377-0.614-1.377-1.377s0.617-1.377,1.377-1.377c0.762,0,1.377,0.614,1.377,1.377
            S33.569,23.699,32.808,23.699z"/>
    </g>
</svg>
